<?xml version="1.0" encoding="UTF-8"?>
<svg xmlns="http://www.w3.org/2000/svg" width="300px" height="53px" viewBox="0 0 154 27">
  <g fill="none" fill-rule="evenodd">
    <polygon fill="currentColor" points="0 11.314 0 15.666 16.507 22.702 16.507 17.488 5.464 13.596 5.464 13.48 16.507 9.511 16.507 4.297"></polygon>
    <polygon fill="currentColor" points="136.596 9.512 147.638 13.405 147.638 13.519 136.596 17.488 136.596 22.702 153.101 15.686 153.101 11.333 136.596 4.297"></polygon>
    <path fill="currentColor" d="M93.5129045,8.05545 L93.4343591,7.95726818 C93.3975409,7.91308636 93.36195,7.86890455 93.3239045,7.82595 L93.2772682,7.77808636 L93.2208136,7.72040455 C93.1017682,7.59031364 92.9778136,7.46635909 92.8231773,7.31785909 C92.0328136,6.56185909 91.1123591,5.97276818 90.0900409,5.56654091 C89.9881773,5.52481364 89.8838591,5.49658636 89.7807682,5.45976818 L80.2460864,18.5903591 C80.3135864,18.6787227 80.3639045,18.7781318 80.4350864,18.8640409 C81.1297227,19.7047227 81.9532227,20.3907682 82.8834955,20.9037682 C83.2136318,21.0915409 83.5634045,21.2351318 83.8910864,21.3676773 C84.0039955,21.4130864 84.1193591,21.4462227 84.2322682,21.4867227 L93.7473136,8.38190455 C93.6663136,8.27390455 93.6000409,8.15976818 93.5129045,8.05545"></path>
    <path fill="#FFF" d="M94.7102318 16.9190591C94.6574591 17.0368773 94.6034591 17.1510136 94.5470045 17.2639227L94.4672318 17.4222409C94.3592318 17.6247409 94.2450955 17.8223318 94.1223682 18.0137864 93.9738682 18.2457409 93.8400955 18.4371955 93.6989591 18.6225136L93.7038682 18.62865C93.6866864 18.6409227 93.6719591 18.6568773 93.6596864 18.6728318 92.3219591 20.3959227 90.4061864 21.5262409 88.2682773 21.8576045 87.8240045 21.9336955 87.3735955 21.9717409 86.9280955 21.9717409 85.8947318 21.9717409 84.8687318 21.7716955 83.8820045 21.3740591 83.5530955 21.2427409 83.20455 21.0979227 82.8744136 20.9113773 81.9441409 20.39715 81.1218682 19.7123318 80.4247773 18.8704227 79.16805 17.3498318 78.4746409 15.4303773 78.4746409 13.4667409 78.4746409 8.78469545 82.2804136 4.97401364 86.9600045 4.97401364 88.0301864 4.97401364 89.0807318 5.17528636 90.0809591 5.57292273 91.1045045 5.97915 92.0237318 6.56824091 92.8140955 7.32546818 92.9687318 7.47396818 93.0926864 7.59792273 93.2105045 7.72678636L93.2681864 7.78569545 93.3148227 7.83233182C93.3540955 7.87528636 93.3884591 7.91946818 93.42405 7.96487727L93.5038227 8.06305909C95.6036864 10.5851045 96.05655 13.9674682 94.7102318 16.9190591M96.5437773 4.11983182C95.5018227 3.05578636 94.2757773 2.17460455 92.9000045 1.50083182 91.0431409.59265 89.0586409.132422727 87.0005045.132422727L86.99805.132422727C79.6344136.13365 73.6367318 6.10310455 73.6281409 13.4397409 73.6244591 16.9914682 74.9658682 20.3308773 77.4056864 22.84065 78.4488682 23.9132864 79.6712318 24.7993773 81.0396409 25.4756045 82.9100045 26.3997409 84.9153682 26.8673318 86.9992773 26.8673318 94.3629136 26.8673318 100.359368 20.9027864 100.365505 13.5698318 100.369186 9.99355909 99.0118227 6.63819545 96.5437773 4.11983182M127.190986.132177273L122.802259.132177273 122.539623.132177273C122.456168.132177273 122.375168.172677273 122.326077.241404545L119.400259 4.27054091 119.169532 4.57858636C119.109395 4.65835909 119.09835 4.76513182 119.143759 4.85595 119.187941 4.94431364 119.281214 5.00199545 119.380623 5.00199545L122.537168 5.00199545 122.537168 18.2859955 109.481441.241404545C109.429895.170222727 109.348895.132177273 109.267895.132177273L109.260532.132177273 109.254395.132177273 104.865668.132177273C104.718395.132177273 104.600577.251222727 104.600577.397268182L104.600577 26.6032227C104.600577 26.7492682 104.718395 26.8683136 104.865668 26.8683136L109.254395 26.8683136C109.400441 26.8683136 109.519486 26.7492682 109.519486 26.6032227L109.519486 8.68381364 122.575214 26.7345409C122.62185 26.8130864 122.706532 26.8683136 122.802259 26.8683136L125.720714 26.8683136 127.190986 26.8683136C127.337032 26.8683136 127.456077 26.7492682 127.456077 26.6032227L127.456077 4.73690455 127.456077.397268182C127.456077.251222727 127.337032.132177273 127.190986.132177273M61.4959364 14.2631182C60.7338 14.3073 60.0060273 14.3281636 59.2083 14.3281636 58.6265727 14.3281636 58.0620273 14.3171182 57.4680273 14.3060727 56.8715727 14.2950273 56.2456636 14.2839818 55.5387545 14.2815273L55.5387545 5.11625455C56.2223455 5.1138 56.8384364 5.1003 57.4275273 5.0868 58.0203 5.0733 58.5836182 5.06102727 59.1567545 5.06102727 60.1201636 5.06102727 60.9461182 5.09661818 61.8334364 5.17884545 63.9320727 5.37152727 65.4956182 7.51066364 65.3925273 10.0474364 65.3041636 12.2516182 63.5553 14.1428455 61.4959364 14.2631182M60.9105273.162981818C59.1334364.140890909 57.5662091.1323 56.0026636.1323 55.0908.1323 54.1801636.134754545 53.2314818.139663636 53.2130727.134754545 53.1934364.1323 53.1738.1323L50.5118455.1323C50.4259364.1323 50.3473909.174027273 50.2970727.242754545L47.3712545 4.27189091 47.1405273 4.57993636C47.0791636 4.65970909 47.0693455 4.76770909 47.1147545 4.8573 47.1589364 4.94689091 47.2509818 5.00334545 47.3516182 5.00334545L50.5118455 5.00334545 50.5118455 20.1810273 50.5118455 26.6033455C50.5118455 26.7493909 50.6296636 26.8684364 50.7769364 26.8684364L55.1767091 26.8684364C55.3227545 26.8684364 55.4405727 26.7493909 55.4405727 26.6033455L55.4405727 19.2102545C56.1658909 19.2127091 56.7954818 19.2213 57.3882545 19.2286636 57.9761182 19.2360273 58.5296182 19.2433909 59.1052091 19.2433909 59.7225273 19.2433909 60.3643909 19.2348 61.1056636 19.2102545 66.4123909 19.0335273 70.3728 14.7859364 70.3175727 9.32948182 70.2684818 4.33816364 66.0491182.225572727 60.9105273.162981818M36.8845773 11.1986182L33.2543045 10.5150273C31.5618955 10.1971636 30.5911227 9.2178 30.5911227 7.82975455 30.5911227 5.92502727 32.5608955 4.78734545 34.4643955 4.78734545 37.3067591 4.78734545 38.66535 6.52639091 38.98935 8.15375455 39.0040773 8.22739091 39.0494864 8.29120909 39.1120773 8.32925455 39.1550318 8.3538 39.2016682 8.3673 39.2495318 8.3673 39.2740773 8.3673 39.3010773 8.36361818 39.3243955 8.35625455L43.7401227 7.02957273C43.8714409 6.98907273 43.9524409 6.8553 43.9229864 6.7203 43.5867136 5.14325455 41.90535-.000245454545 34.4288045-.000245454545 29.3258045-.000245454545 25.1751682 3.67420909 25.1751682 8.18934545 25.1751682 12.0135273 27.78435 14.8190727 32.1546682 15.6916636L35.7837136 16.4108455C37.6602136 16.7790273 38.7794864 17.8381636 38.7794864 19.2409364 38.7794864 21.0241636 37.2012136 22.1753455 34.7601682 22.1753455 33.1107136 22.1753455 31.7275773 21.6930273 30.7580318 20.7811636 29.9271682 19.9981636 29.4018955 18.8850273 29.2779409 17.6454818 29.26935 17.5681636 29.22885 17.4994364 29.1650318 17.4552545 29.12085 17.4233455 29.0680773 17.4073909 29.0140773 17.4073909 28.9907591 17.4073909 28.9698955 17.4110727 28.9465773 17.4159818L24.3872591 18.6039818C24.2596227 18.6371182 24.1761682 18.7598455 24.1908955 18.8911636 24.8462591 24.4924364 29.9529409 26.9997545 34.7208955 26.9997545 39.36735 26.9997545 44.3071227 24.1672091 44.3071227 18.9181636 44.3071227 15.0277091 41.4623045 12.0699818 36.8845773 11.1986182"></path>
  </g>
</svg>
